<?xml version="1.0" encoding="utf-8"?>
<!-- Generator: Adobe Illustrator 21.0.2, SVG Export Plug-In . SVG Version: 6.00 Build 0)  -->
<svg version="1.1" id="Layer_1" xmlns="http://www.w3.org/2000/svg" xmlns:xlink="http://www.w3.org/1999/xlink" x="0px" y="0px"
	 width="801.3639526px" height="502.1900024px" viewBox="0 0 801.3639526 502.1900024"
	 style="enable-background:new 0 0 801.3639526 502.1900024;" xml:space="preserve">
<style type="text/css">
	.st0{opacity:0.15;}
	.st1{fill:url(#SVGID_1_);}
	.st2{opacity:0.1;}
	.st3{opacity:0.2;}
	.st4{fill:#1B1F8A;}
	.st5{fill:#FFFFFF;}
	.st6{fill:none;stroke:#000000;stroke-width:1.1673708;stroke-miterlimit:10;}
	.st7{fill:none;stroke:#000000;stroke-width:1.945618;stroke-miterlimit:10;}
	.st8{opacity:0.3;fill:none;stroke:#000000;stroke-width:0.8162839;stroke-miterlimit:10;stroke-dasharray:4.5749998;}
	.st9{fill:none;stroke:#000000;stroke-width:0.8162839;stroke-miterlimit:10;}
	.st10{opacity:0.07;fill:none;stroke:#000000;stroke-width:1.1673708;stroke-miterlimit:10;}
	.st11{opacity:0.07;}
	.st12{clip-path:url(#SVGID_3_);}
	.st13{clip-path:url(#SVGID_5_);}
	.st14{clip-path:url(#SVGID_7_);}
	.st15{fill:none;stroke:#000000;stroke-width:1.6950001;stroke-miterlimit:10;}
	.st16{clip-path:url(#SVGID_9_);}
	.st17{fill:url(#SVGID_10_);}
	.st18{fill:none;stroke:#000000;stroke-width:1.6958903;stroke-miterlimit:10;}
	.st19{opacity:0.2;fill:#1B1F8A;}
	.st20{fill:none;stroke:#000000;stroke-width:1.0175341;stroke-miterlimit:10;}
	.st21{fill:none;stroke:#000000;stroke-width:1.0175341;stroke-miterlimit:10;stroke-dasharray:3.3917806;}
	.st22{opacity:0.07;fill:#1B1F8A;}
	.st23{opacity:0.14;fill:#1B1F8A;}
	.st24{fill:#FFFFFF;stroke:#000000;stroke-width:1.6950001;stroke-miterlimit:10;}
	.st25{fill:none;stroke:#000000;stroke-width:0.9;stroke-miterlimit:10;}
	.st26{clip-path:url(#SVGID_12_);}
	.st27{clip-path:url(#SVGID_14_);}
	.st28{clip-path:url(#SVGID_16_);}
</style>
<g>
	<g>
		<g class="st0">
			
				<linearGradient id="SVGID_1_" gradientUnits="userSpaceOnUse" x1="158.5970459" y1="385.0293884" x2="78.6361465" y2="485.4182739">
				<stop  offset="0" style="stop-color:#FFFFFF"/>
				<stop  offset="1" style="stop-color:#000000"/>
			</linearGradient>
			<path class="st1" d="M342.2136536,352.7850037c-6.9385376-72.9857178-89.0654755-124.8795319-183.4356689-115.9080505
				S-6.4695888,312.2879028,0.4689403,385.2736206s89.0654755,124.8795471,183.4356842,115.9080811
				C278.2748108,492.2102051,349.1521912,425.770752,342.2136536,352.7850037z"/>
		</g>
		<g id="dRDbh7_1_" class="st2">
			<g>
				<path d="M254.4759064,400.3467102c0-70.4050293-23.7815094-137.4182434-58.6738586-197.8758392
					c47.2883301-29.4370728,100.5829926-53.7171021,156.2963409-60.0337524
					c32.7086792,54.4604492,50.6467285,113.6576996,47.9569702,177.3634796
					C347.012146,338.8433228,302.0565186,371.1245728,254.4759064,400.3467102z"/>
				<path d="M168.7179413,156.3108826c-16.6328735-27.4112244-41.6396637-68.8580551-79.1208649-63.1611404
					c69.284317-52.2752609,176.5275574-67.9595871,233.9695435,9.4257736
					C266.6676331,109.9398575,218.4970398,127.4220581,168.7179413,156.3108826z"/>
			</g>
		</g>
		<g class="st3">
			<circle class="st4" cx="214.519928" cy="258.7518005" r="207.9445496"/>
		</g>
		<g>
			<polygon class="st5" points="207.5157013,175.8684845 280.2818298,372.7650146 428.5379333,293.7729187 367.8346252,117.499939 
							"/>
		</g>
		<g>
			<polygon class="st5" points="94.6698608,58.7422714 177.5531921,130.3410187 337.0938721,78.9766998 234.754364,22.9428978 			
				"/>
		</g>
		<g>
			<path d="M367.1176453,119.0032806l59.9921875,174.2078094L280.913208,371.1058655l-71.895874-194.5417786
				L367.1176453,119.0032806 M367.8346252,117.499939l-160.3189087,58.3685303l72.7661133,196.8965454l148.2561035-78.9920959
				L367.8346252,117.499939L367.8346252,117.499939z"/>
		</g>
		<polyline class="st6" points="117.292717,52.9608727 94.6698608,58.7422714 177.5531921,130.3410187 337.0938721,78.9766998 
			234.754364,22.9428978 126.1948547,50.6858826 		"/>
		<path class="st6" d="M115.4012222,75.9050446"/>
		<path class="st6" d="M324.6749878,82.3478165"/>
		<path class="st7" d="M421.7529602,276.0778198c0.4712219-5.7129822,0.7115173-11.4914246,0.7115173-17.3260193
			c0-74.0157471-38.6702271-138.9996033-96.9091797-175.8500366c-0.1990967-0.1259918-0.3984375-0.2516479-0.5980225-0.376976
			c-0.0940552-0.0590591-0.1881409-0.1180496-0.2822876-0.1769638"/>
		<path class="st7" d="M114.7994614,76.2332306C50.3074722,111.5437851,6.575388,180.0407104,6.575388,258.7518005
			c0,114.8446045,93.0999451,207.9445496,207.9445343,207.9445496c101.3660583,0,185.7919922-72.5292664,204.2127686-168.5227661"/>
		<path class="st8" d="M252.9074707,298.6932983c27.8972168-19.7025757,53.1329651-39.4909973,74.3180847-57.9445953"/>
		<g>
			<g>
				<path class="st9" d="M72.0107269,393.1029053c32.899704-4.5860291,101.0176239-38.9052429,173.706131-89.3742981
					c2.4156189-1.6772461,4.8128052-3.355957,7.1906128-5.0353088"/>
				<g>
					<polygon points="66.2723236,393.6107178 74.6743622,396.1357117 72.4380951,393.0171204 74.0383911,389.5299683 					"/>
				</g>
			</g>
		</g>
		<g>
			<line class="st5" x1="326.9766541" y1="240.4629974" x2="277.5579529" y2="282.8774719"/>
			<g>
				<line class="st6" x1="326.9766541" y1="240.4629822" x2="283.8125" y2="277.5093994"/>
				<g>
					<polygon points="277.5579529,282.8774719 283.2804871,271.711853 284.2800598,277.1080933 289.4615479,278.9136353 					"/>
				</g>
			</g>
		</g>
		<g>
			<line class="st5" x1="210.7804108" y1="67.8217163" x2="163.1556091" y2="90.2612839"/>
			<g>
				<line class="st6" x1="210.780426" y1="67.8217163" x2="170.6116943" y2="86.7481689"/>
				<g>
					<polygon points="163.1556091,90.2612762 171.6393738,81.0176849 171.1690979,86.4855347 175.6845398,89.6029968 					"/>
				</g>
			</g>
		</g>
		<path class="st10" d="M324.6749878,82.3478165c-31.9403992-19.9872627-69.6985168-31.540554-110.1550598-31.540554
			c-35.8889313,0-69.6543579,9.0917892-99.1187057,25.0977821"/>
		<path class="st10" d="M418.7326965,298.173584c1.3891296-7.2388306,2.4028625-14.6111145,3.0202637-22.0957642"/>
		<circle cx="326.8871765" cy="240.5398102" r="3.1557949"/>
		<circle cx="210.7804108" cy="67.8217163" r="3.1557949"/>
		<g class="st11">
			<g>
				<path class="st4" d="M18.8321762,247.6623383c0-58.199234,23.9102974-110.812973,62.4420853-148.5573273
					C35.6208763,137.2497101,6.5754004,194.6076813,6.5754004,258.7518005
					c0,114.8446045,93.0999374,207.9445496,207.9445343,207.9445496c56.6454163,0,107.9996033-22.6507263,145.5026245-59.3873596
					c-36.085144,30.150238-82.5452881,48.2978821-133.2458496,48.2978821
					C111.9321136,455.6068726,18.8321762,362.5069275,18.8321762,247.6623383z"/>
			</g>
		</g>
	</g>
	<g>
		<path d="M324.7891235,254.0088348c4.5533142-0.3195343,7.0296631-1.9970551,7.0296631-4.1538849
			c0-1.5177765-1.0384827-2.5562286-2.6361389-2.5562286c-1.2781067,0-2.9556274,0.7988281-4.2337646,2.1568298
			c-1.4378662,1.5177612-2.3165894,3.6745758-2.3165894,5.8314056c0,2.955658,1.4378967,4.6331787,3.9142456,4.6331787
			c1.6775208,0,3.355072-0.7988281,4.9527283-2.3165894v-1.1982422c-1.5177917,1.3580017-2.9556885,2.0769348-4.1539001,2.0769348
			c-1.5976562,0-2.6361389-1.1982422-2.6361389-3.2751617C324.7092285,254.807663,324.7092285,254.3283691,324.7891235,254.0088348
			 M324.9488831,253.130127c0.7189331-3.1154022,2.1568298-4.7130432,3.6745911-4.7130432
			c0.7189636,0,1.3580017,0.5591583,1.3580017,1.3579865C329.9814758,251.3727264,328.1441956,252.9703674,324.9488831,253.130127z"
			/>
	</g>
	<g>
		<path d="M302.4457703,280.3025208c-0.079895-0.079895-0.1597595-0.079895-0.2396545-0.079895c0,0-0.0798645,0-0.1597595,0
			c-0.7988281,0-1.5976562,0.15979-2.3964539,0.3195496c-1.2781372,0-2.2367249-0.4793091-2.2367249-1.5177917
			c0-0.0798645,0-0.239624,0.079895-0.319519c0.5591736-3.035614,4.4733887-3.2750854,7.7485657-4.1538391
			c0.5591736-0.0799561,0.8787231-0.5592957,0.9585876-0.9586792c0-0.0797424,0-0.0797424,0-0.1596985
			c0-0.4793701-0.239624-0.8787537-0.7987976-0.8787537c-0.079895,0-0.2396545,0-0.3195496,0
			c-1.6775208,0.4793701-3.4349365,1.0384521-4.8728027,1.7574768c-0.2396545,0-0.3994446,0.0797424-0.5591736,0.0797424
			c-0.7988586,0-1.3580017-0.2394714-1.3580017-0.7987671c0-0.0797424,0-0.1596985,0-0.2396545c0-0.0797729,0-0.159729,0-0.2396851
			c0-0.3194275-0.2396545-0.5591125-0.6390686-0.5591125s-0.7988281,0.2396851-0.8787231,0.7987976
			c-0.0798645,0.1599121-0.0798645,0.3993835-0.0798645,0.4793396c0,1.0384216,0.7189331,1.4378357,1.8372803,1.5177917
			c-1.0384521,0.8787231-1.8372803,1.9171753-2.0769348,3.195282c0,0.1597595-0.0798645,0.319519-0.0798645,0.4792786
			c0,1.0384827,0.7189331,1.7574463,1.6775208,2.1568298c-2.0769653,0.9585876-3.6745911,2.6361084-4.1539001,4.7929382
			c0,0.3195496-0.0798645,0.6390686-0.0798645,1.0384827c0,2.6361389,2.0769348,4.6331787,4.9526978,4.6331787
			c0.9585876,0,1.9970398-0.1597595,3.035553-0.1597595c0.7189331,0,1.2781067,0.5591736,1.2781067,1.2781067
			c0,0.15979-0.079895,0.2396545-0.079895,0.319519c-0.239624,1.1183777-1.3580017,1.7574463-2.6361084,1.7574463
			c-0.4792786,0-0.9585876-0.079895-1.3580017-0.2396545c-0.15979,0-0.15979-0.079895-0.319519-0.079895
			c-0.3994141,0-0.7988586,0.4792786-0.8787231,0.9585876c-0.079895,0.079895-0.079895,0.1597595-0.079895,0.1597595
			c0,0.3994141,0.3195496,0.7189636,0.8787231,0.7189636c2.3964539,0,5.0325928-1.1183472,5.4320068-3.2752075
			c0.0798645-0.239624,0.0798645-0.4792786,0.0798645-0.7189331c0-1.5976257-1.1183472-2.8757629-2.8757629-2.8757629
			c-0.7988281,0-1.5976257-0.0798645-2.3964844-0.0798645c-2.0769348,0-3.9142151-1.1982422-3.9142151-3.035553
			c0-0.1597595,0-0.3994141,0.0798645-0.5591431c0.4793091-2.7160339,3.9142456-3.5947266,6.9497681-3.5947266
			c0.5592041,0,0.9585876-0.4793091,1.0384827-0.9585876c0-0.079895,0-0.1597595,0-0.1597595
			C303.0049438,280.7019348,302.8451843,280.3824158,302.4457703,280.3025208"/>
	</g>
	<g>
		<defs>
			<rect id="SVGID_2_" x="136.5134277" y="362.1906128" width="88.9091721" height="26.9201202"/>
		</defs>
		<clipPath id="SVGID_3_">
			<use xlink:href="#SVGID_2_"  style="overflow:visible;"/>
		</clipPath>
		<path class="st12" d="M147.5372009,375.6904907h-5.9113007c0.1597748-2.2366943,1.5976562-3.6745911,3.275177-3.6745911
			c1.677536,0,2.6361237,1.1183777,2.6361237,3.1953125C147.5372009,375.3709717,147.5372009,375.5307312,147.5372009,375.6904907
			 M149.8537903,380.8029785c-1.5177765,0.9585876-2.7958832,1.4378662-4.0740051,1.4378662
			c-2.5562286,0-4.3136444-1.9171753-4.3136444-5.1923523c0-0.0798645,0-0.2396545,0-0.319519h8.3077698
			c0.0798798-0.2396545,0.0798798-0.5591736,0.0798798-0.7988281c0-3.1154175-1.8372955-5.0325928-4.6331787-5.0325928
			c-3.4349365,0-5.9911652,2.6361084-5.9911652,6.4704895c0,3.8343506,2.3964539,6.390564,5.7515259,6.390564
			c1.597641,0,3.275177-0.5591736,4.872818-1.5976257V380.8029785z"/>
		<polyline class="st12" points="151.3715668,371.1371765 151.3715668,372.0957642 152.9692078,372.3354187 156.4041443,377.368042 
			152.6496887,382.3207092 151.211792,382.5603638 151.211792,383.5189514 156.08461,383.5189514 156.08461,382.5603638 
			154.6467285,382.4006348 154.4869537,382.0810852 157.1230316,378.3266296 159.5195618,382.1609802 159.359848,382.4006348 
			158.3213959,382.5603638 158.3213959,383.5189514 163.7532959,383.5189514 163.7532959,382.5603638 162.2355042,382.3207092 
			158.4011536,376.8088379 161.8361206,372.3354187 163.2739563,372.0957642 163.2739563,371.1371765 158.6408234,371.1371765 
			158.6408234,372.0957642 159.8391876,372.2555542 160.0786591,372.5750732 157.7621002,375.8502502 155.6053314,372.4952087 
			155.6851959,372.2555542 156.8834381,372.0957642 156.8834381,371.1371765 151.3715668,371.1371765 		"/>
		<path class="st12" d="M168.3864136,382.0011902v-8.6272888c0.9586792-0.5591736,1.7574615-0.8786926,2.6362-0.8786926
			c2.2368317,0,3.7544098,1.7573853,3.7544098,4.7130432c0,3.195282-1.7572479,5.1923828-4.2337494,5.1923828
			C169.9042053,382.4006348,169.1854095,382.3207092,168.3864136,382.0011902 M164.3923645,389.1107483h6.071167v-0.9585876
			l-1.6775055-0.079895l-0.3996124-0.4793091v-4.2337341c0.9586792,0.159729,1.7574615,0.239624,2.3965302,0.239624
			c3.7546234,0,6.3108215-2.6361084,6.3108215-6.7101135c0-3.5947266-2.1568451-5.9911804-4.9527588-5.9911804
			c-1.198349,0-2.3965149,0.4792786-3.7545929,1.5177612v-1.4378662h-1.0384369l-2.9556122,0.9585876v0.7987976h1.8374176
			v14.8581238l-0.3995972,0.4793091l-1.4378204,0.079895V389.1107483z"/>
		<path class="st12" d="M181.8066559,376.0899048c0-7.0296326,2.0771027-10.5444641,5.0327301-11.0238037v-1.1981812
			c-4.2337494,0.5591125-7.1893768,4.4734192-7.1893768,12.2219849c0,7.7485962,2.9556274,11.7427063,7.1893768,12.2220154
			v-1.1982422C183.8837585,386.6343689,181.8066559,383.1195679,181.8066559,376.0899048"/>
		<path class="st12" d="M194.1884613,368.6607666l-1.2781219,2.5563354l-1.8372345,0.7987976v0.7988281l1.5975647-0.1597595
			l-1.4378357,6.9497681c-0.159729,0.7189331-0.159729,1.2781067-0.159729,1.7573853
			c0,1.5177917,0.6390686,2.3166199,2.1568604,2.3166199c0.8787231,0,2.236618-0.3994446,3.9141235-1.1183777v-0.8786926
			c-1.0384521,0.3994141-1.8372345,0.5591736-2.396347,0.5591736c-1.0384064,0-1.5977325-0.5591736-1.5977325-1.5976562
			c0-0.319519,0.0799561-0.6390381,0.1597137-1.1183472l1.358078-6.869873h3.8343658v-1.1183472h-3.6746521l0.5592957-2.8758545
			H194.1884613"/>
		<path class="st12" d="M210.8039856,372.4153137c-0.0797424-0.079895-0.1597137-0.079895-0.2396698-0.079895
			c0,0-0.0797424,0-0.1597137,0c-0.7987518,0-1.5975342,0.15979-2.3965149,0.3195496
			c-1.2781219,0-2.2366028-0.4792786-2.2366028-1.5177917c0-0.0798645,0-0.239624,0.0799561-0.319519
			c0.5591125-3.035614,4.4734192-3.2750854,7.7484589-4.1538086c0.5593109-0.0799561,0.8787231-0.5593262,0.9586792-0.9587097
			c0-0.0797424,0-0.0797424,0-0.1596985c0-0.4793396-0.2396698-0.8787231-0.7989655-0.8787231c-0.1597137,0-0.2394562,0-0.3194275,0
			c-1.6774902,0.4793396-3.4349823,1.0384216-4.8727875,1.7574463c-0.2396698,0-0.3993988,0.0797424-0.5593109,0.0797424
			c-0.8785248,0-1.3578644-0.2394409-1.3578644-0.7987671c0-0.0797424,0-0.1596985,0-0.2396545c0-0.0797729,0-0.159729,0-0.2396851
			c0-0.3194275-0.2396698-0.559082-0.6390686-0.559082c-0.3993835,0-0.7987671,0.2396545-0.8787231,0.7987671
			c-0.0799866,0.1599121-0.0799866,0.3993835-0.0799866,0.4793396c0,1.0384521,0.7190399,1.4378357,1.8374481,1.5177917
			c-1.0384521,0.8787231-1.8374481,1.9171753-2.0771179,3.195282c0,0.1597595-0.0797424,0.3195496-0.0797424,0.4792786
			c0,1.0385132,0.718811,1.7574463,1.6775208,2.1568298c-2.0769043,0.9585876-3.6746521,2.6361389-4.1540222,4.7929688
			c0,0.319519-0.0797272,0.6390381-0.0797272,1.0384521c0,2.6361389,2.076889,4.6331787,4.8728027,4.6331787
			c1.0384521,0,2.0768738-0.1597595,3.1153259-0.1597595c0.7190094,0,1.1983795,0.5591736,1.1983795,1.2781067
			c0,0.15979,0,0.2396545,0,0.3195496c-0.2396698,1.1183472-1.3581085,1.7574158-2.6362152,1.7574158
			c-0.4793549,0-0.9584808-0.079895-1.358078-0.2396545c-0.1597137,0-0.2394562-0.079895-0.3194122-0.079895
			c-0.3993835,0-0.7987823,0.4793091-0.8787231,0.9585876c-0.0799866,0.079895-0.0799866,0.15979-0.0799866,0.15979
			c0,0.3994141,0.3196564,0.7189331,0.8787231,0.7189331c2.3965302,0,5.0327454-1.1183472,5.4321136-3.275177
			c0.0797729-0.2396545,0.0797729-0.4793091,0.0797729-0.7189636c0-1.5976257-1.1181946-2.8757629-2.8756561-2.8757629
			c-0.7987823,0-1.5977631-0.0798645-2.3965454-0.0798645c-2.1568604,0-3.9141083-1.1982422-3.9141083-3.035553
			c0-0.159729,0-0.3993835,0.0797729-0.5591431c0.4793396-2.7160034,3.9143066-3.5947266,6.9498901-3.5947266
			c0.559082,0,0.9584656-0.4792786,1.0384521-0.9585876c0-0.079895,0-0.1597595,0-0.1597595
			C211.3633118,372.8147278,211.2033844,372.4952087,210.8039856,372.4153137"/>
		<path class="st12" d="M222.4669647,376.0899048c0,7.0296631-2.0770721,10.5444641-5.0326996,11.0237732v1.1982422
			c4.3136902-0.4793091,7.1893463-4.4734192,7.1893463-12.2220154c0-7.7485657-2.8756561-11.6628723-7.1893463-12.2219849v1.1981812
			C220.3898926,365.5454407,222.4669647,369.0602722,222.4669647,376.0899048"/>
	</g>
	<g>
		<path d="M409.1870117,376.5558472c-1.1982422-0.4792786-2.7160034-0.7988281-4.6331787-0.7988281
			c-2.4763489,0-4.7130737,0.7988281-6.630249,2.3165894c-2.6361084,1.9970398-4.1538696,5.1124573-4.1538696,8.4675293
			c0,4.2337646,2.7958984,7.1095276,7.0296326,7.1095276c1.3580017,0,3.1953125-0.239624,5.4320068-0.8786926l1.1982422-6.230835
			l0.3994141-0.319519l1.5976562-0.1597595v-0.9585876h-6.31073v0.9585876l1.6775208,0.1597595l0.3195496,0.319519
			l-1.0384827,5.5119019c-1.1183472,0.239624-1.9970398,0.319519-2.6361084,0.319519
			c-3.035553,0-5.1923523-2.1568298-5.1923523-5.5118713c0-3.355072,1.2781067-6.230835,3.3550415-7.9882507
			c1.3580017-1.1982422,3.035553-1.8372803,4.7130737-1.8372803c0.8787231,0,1.7574158,0.239624,2.6361084,0.6390381
			l0.2396545,0.5592041l-0.0798645,2.3964539h1.3580017L409.1870117,376.5558472"/>
	</g>
	<g>
		<polyline points="262.8851929,64.9855728 262.0863647,68.8199158 263.5242615,68.8199158 264.3230896,66.4233856 
			264.8023987,66.0240021 268.3970947,66.0240021 265.6810913,80.7223434 265.2816772,81.0418701 263.6041565,81.201622 
			263.6041565,82.2400894 269.8349915,82.2400894 269.8349915,81.201622 268.2373352,81.0418701 267.8378906,80.7223434 
			270.7136841,66.0240021 274.3083801,66.0240021 274.6279297,66.4233856 274.5480347,68.8199158 275.9060364,68.8199158 
			276.7048645,64.9855728 262.8851929,64.9855728 		"/>
		<path d="M276.0657959,87.2726898l2.3165894,1.0384598c0.6390381,0.3195343,0.9585876,0.7189636,0.9585876,1.1982422
			c0,0.7988358-0.9585876,1.5177689-2.4763489,1.5177689c-1.4378967,0-2.3964844-0.7988358-2.3964844-1.9970474
			C274.4681396,88.1513977,275.0273438,87.5123367,276.0657959,87.2726898 M279.1812134,81.5211563
			c0,1.6775208-1.0384521,2.8757629-2.0769653,2.8757629c-0.7189331,0-1.1982117-0.4792786-1.1982117-1.4378662
			c0-1.6775513,1.0384827-3.0355453,2.0769348-3.0355453C278.7019043,79.9235077,279.1812134,80.4826889,279.1812134,81.5211563z
			 M279.6604919,79.6838531c-0.5591431-0.2396317-1.1183472-0.3994064-1.6775208-0.3994064
			c-1.9970398,0-3.5148315,1.5177689-3.5148315,3.4349518c0,0.9585876,0.5592041,1.7574005,1.6775208,2.1568298
			c-0.4792786,0.6390533-0.7189331,1.1982193-0.7189331,1.7574005c0,0.0798721,0,0.1597748,0,0.3195267
			c-1.5976257,0.639061-2.3964539,1.3579941-2.3964539,2.4763565c0,1.4378738,1.2781067,2.3964691,3.4349365,2.3964691
			c2.3964844,0,4.3136597-1.3580017,4.3136597-2.7159958c0-0.7189331-0.4793091-1.2781143-1.4378967-1.7574234l-2.7958679-1.2781143
			v-0.0798798c0-0.3994064,0-0.639061,0.1597595-0.9585876c0.2396545,0,0.3993835,0,0.4792786,0
			c1.8372803,0,3.4349365-1.4378738,3.4349365-3.3550491c0-0.3994293-0.0798645-0.7988358-0.239624-1.1982422h1.8373718v-0.7988358
			H279.6604919z"/>
		<path d="M302.0276489,65.3849258c-1.1983643-0.399353-2.795929-0.7190094-4.6333313-0.7190094
			c-2.4762878,0-4.7128906,0.7987823-6.6300659,2.2368164c-2.6362,2.0768967-4.1539917,5.1922302-4.1539917,8.4674835
			c0,4.3136368,2.795929,7.1095276,7.0296631,7.1095276c1.3580933,0,3.195282-0.2396545,5.4321289-0.8787079l1.1981201-6.1509399
			l0.3993835-0.3994064l1.5977478-0.0798798v-1.0384903h-6.3108215v1.0384903l1.6775208,0.0798798l0.2396545,0.3994064
			l-0.9584656,5.4319992c-1.1184387,0.2396545-1.9971619,0.3994064-2.7161865,0.3994064
			c-2.9556274,0-5.1124573-2.236702-5.1124573-5.511879c0-3.4349823,1.2781067-6.3106537,3.3552246-8.0681152
			c1.3578491-1.1981583,3.0353699-1.8372192,4.7130737-1.8372192c0.87854,0,1.7572632,0.2394714,2.6359863,0.639061
			l0.159729,0.5590973l-0.0797729,2.3965225h1.4378357L302.0276489,65.3849258"/>
	</g>
	<g>
		<defs>
			<rect id="SVGID_4_" x="222.4178772" y="171.9364471" width="88.9091721" height="26.9201202"/>
		</defs>
		<clipPath id="SVGID_5_">
			<use xlink:href="#SVGID_4_"  style="overflow:visible;"/>
		</clipPath>
		<path class="st13" d="M230.4859924,189.4304504c-0.6390686-0.5591888-1.3580017-1.3580017-1.7574005-2.1568298
			c-0.1597748-1.1183472-0.1597748-2.3964691-0.1597748-3.5148315c0-1.1982269,0.079895-2.4763336,0.4792938-3.5148163
			c1.2781219,0.5591736,3.0355225,0.8787079,4.553299,1.1183624c-0.1597595,1.9970551-0.1597595,3.9940948-0.1597595,5.9911804
			L230.4859924,189.4304504 M233.4416504,187.992569c0.3195343,1.1982269,0.7189331,3.1154022,0.7189331,3.7544556
			c0,1.1982422-0.7189331,2.3166046-1.9171753,2.3166046c-1.5177612,0-2.7958832-1.0384827-3.9142303-2.0769501
			C230.0066986,190.5488129,231.6842346,189.1907959,233.4416504,187.992569z M224.9741058,193.9837341l0.2396545,0.3195343
			l0.9585876-0.4792938c1.3580017,1.1183472,3.1952972,2.1568298,5.0325928,2.1568298
			c0.2396393,0,0.6390686-0.079895,0.9585876-0.1597748c1.517746-1.5177612,2.8757629-3.195282,4.2337646-4.872818
			l-0.7189331-3.2751617c-0.079895-0.3195343-0.1597748-0.7189636-0.1597748-1.0384979
			c0-3.2751617-0.2396545-6.470459,0.5591736-8.0681152l-0.1597748-0.1598358l-1.837265,1.038559
			c-1.0384979-0.2396545-2.0769653-0.5591888-3.035553-1.1982727c-1.4378662,0.8787384-2.7958832,1.6775513-4.2337646,2.6361389
			c-0.2396393,1.7574158-0.319519,3.5148163-0.319519,5.2722473c0,0.8787079,0,1.7574005,0.0798798,2.7159882l1.8372955,2.3166046
			C227.2906952,192.1464539,226.0924683,193.1849213,224.9741058,193.9837341z"/>
		<path class="st13" d="M245.1843262,186.714447h17.2546082v-1.597641h-17.2546082V186.714447 M245.1843262,181.1226807h17.2546082
			v-1.5177765h-17.2546082V181.1226807z"/>
		<polyline class="st13" points="273.143219,173.2941284 272.4241943,177.1284943 273.8622437,177.1284943 274.6610107,174.7321625 
			275.0603943,174.3325806 278.7350464,174.3325806 275.9391479,189.0310364 275.5397339,189.4304504 273.9419861,189.5902252 
			273.9419861,190.5488129 280.1728516,190.5488129 280.1728516,189.5902252 278.4953308,189.4304504 278.1757202,189.0310364 
			280.9716187,174.3325806 284.6462708,174.3325806 284.8859558,174.7321625 284.8059998,177.1284943 286.2438354,177.1284943 
			286.9628296,173.2941284 273.143219,173.2941284 		"/>
		<path class="st13" d="M285.2053833,192.2263336c3.195282-0.1597748,4.8727722-1.3580017,4.8727722-2.8757629
			c0-1.0384674-0.7187805-1.757431-1.8371887-1.757431c-0.8787231,0-2.0769043,0.5591888-2.9556274,1.5177765
			c-1.0384521,1.0384674-1.5977478,2.5562286-1.5977478,3.9941254c0,2.0769348,1.0386353,3.275177,2.7161255,3.275177
			c1.1981812,0,2.3165894-0.4793091,3.4349976-1.5976562v-0.7988281c-1.0386658,0.9585876-1.9971313,1.4378967-2.875885,1.4378967
			c-1.1183777,0-1.8372192-0.8787079-1.8372192-2.3165894C285.1256104,192.7855072,285.1256104,192.5458679,285.2053833,192.2263336
			 M285.2853394,191.6671448c0.4793396-2.1568298,1.5177917-3.2751617,2.5562439-3.2751617
			c0.559082,0,0.9584656,0.3993988,0.9584656,0.9585876C288.8000488,190.4689178,287.5219421,191.5074005,285.2853394,191.6671448z"
			/>
		<path class="st13" d="M309.6495361,173.7734833c-1.1983643-0.4793549-2.795929-0.7987823-4.6333313-0.7987823
			c-2.4762878,0-4.7130737,0.7987823-6.630249,2.2366028c-2.6359863,2.0771027-4.1537781,5.1924438-4.1537781,8.4676056
			c0,4.3136597,2.7958984,7.1894226,7.0296326,7.1894226c1.3580627,0,3.195282-0.319519,5.3521423-0.9585876l1.2781067-6.1509552
			l0.3994141-0.3993988l1.5975342-0.0798798v-1.0384674h-6.3106384v1.0384674l1.6775208,0.0798798l0.2396545,0.3993988
			l-0.9584961,5.4320068c-1.1184082,0.2396545-1.9971313,0.3994293-2.7161255,0.3994293
			c-3.0353699,0-5.1124878-2.2367096-5.1124878-5.5119019c0-3.3550568,1.2781067-6.3107758,3.3552246-8.0680389
			c1.3578491-1.1184082,3.0353699-1.7574615,4.7128906-1.7574615c0.8787231,0,1.7574463,0.2396698,2.5562439,0.6390533
			l0.2396545,0.5590973l-0.0797729,2.3965302h1.3579102L309.6495361,173.7734833"/>
	</g>
	<g>
		<path d="M119.3801956,58.4177628l1.1982422,1.4380379l-1.1183624,6.5502815
			c-1.1982193,1.4378738-2.3165817,2.1568069-3.275177,2.1568069c-1.3579941,0-2.236702-1.1183395-2.236702-3.1153946
			c0-4.3136597,2.4763565-7.1094894,4.7929382-7.1094894C118.9009094,58.3380051,119.1405487,58.4177628,119.3801956,58.4177628
			 M123.5340805,50.9089775l-3.9142303,0.7187996v0.7190399l2.2367096,0.3194122l-0.8787155,5.1124763
			c-0.7189407-0.3194275-1.3579941-0.4791412-2.0769348-0.4791412c-2.1568298,0-4.3935318,1.2781143-5.7515259,3.5147209
			c-0.8787155,1.2781372-1.2781296,2.8757858-1.2781296,4.6332092c0,2.9556427,1.2781296,4.5532913,3.3550568,4.5532913
			c1.3580017,0,2.7958908-0.7988358,3.994133-2.3165817c0,0.1597519,0,0.3195267,0,0.4792786
			c0,1.2781219,0.5591583,1.8373032,1.7574005,1.8373032c0.639061,0,1.6775284-0.2396545,3.1154175-0.7988358V68.483017
			c-0.7988358,0.1597672-1.3579941,0.2396469-1.6775208,0.2396469c-0.7988358,0-1.1183701-0.3195267-1.1183701-1.0384598
			c0-0.3195343,0.0798798-0.7988358,0.1597748-1.358017l2.7159958-15.4172096H123.5340805z"/>
		<polyline points="130.883255,52.5864868 130.883255,53.5449638 132.5607605,53.7046776 132.8004303,54.0243073 
			130.0844421,68.3232574 129.6850128,68.7226639 128.0074921,68.8025436 128.0074921,69.841011 139.4307098,69.841011 
			140.3891754,65.1279602 139.1110535,65.1279602 138.1525879,68.2433624 137.673233,68.6427841 132.241333,68.6427841 
			135.0372467,54.0243073 135.4366302,53.7046776 137.1141357,53.5449638 137.1141357,52.5864868 130.883255,52.5864868 		"/>
		<path d="M145.9012604,74.8736038l2.3165436,1.0384674c0.6390533,0.3195267,0.9584961,0.718956,0.9584961,1.1982422
			c0,0.7988358-0.9584961,1.5177689-2.4762878,1.5177689c-1.4378052,0-2.3965302-0.7988358-2.3965302-1.9970551
			C144.3034821,75.7523193,144.8625946,75.1132584,145.9012604,74.8736038 M149.0165863,69.1220703
			c0,1.6775284-1.0384521,2.8757706-2.0768738,2.8757706c-0.7190399,0-1.1983795-0.4792862-1.1983795-1.4378738
			c0-1.6775436,1.0384521-3.0355377,2.0771027-3.0355377C148.5372467,67.5244293,149.0165863,68.0836105,149.0165863,69.1220703z
			 M149.4959259,67.2847748c-0.5592957-0.2396317-1.1184082-0.3994064-1.6774902-0.3994064
			c-1.9971619,0-3.5149536,1.5177689-3.5149536,3.4349442c0,0.9585876,0.5591125,1.7574005,1.6775208,2.1568298
			c-0.4793396,0.639061-0.7187958,1.1982193-0.7187958,1.7574005c0,0.0798798,0,0.1597748,0,0.3195343
			c-1.5977783,0.639061-2.3965302,1.3579941-2.3965302,2.4763565c0,1.4378738,1.2781219,2.3964615,3.3549957,2.3964615
			c2.4762878,0,4.3137054-1.3579941,4.3137054-2.7159882c0-0.7189407-0.3993988-1.2781219-1.358078-1.7574234l-2.8756561-1.2781219
			v-0.0798721c0-0.3994141,0.0797424-0.639061,0.2396698-0.9585953c0.2394714,0,0.3993988,0,0.3993988,0
			c1.837204,0,3.4349365-1.4378662,3.4349365-3.3550491c0-0.3994217-0.0799561-0.7988281-0.2396698-1.1982346h1.9171753v-0.7988358
			H149.4959259z"/>
		<path d="M158.4427643,62.411953c0-7.0295677,2.076889-10.5445061,5.0325012-11.0238457v-1.1981392
			c-4.3137054,0.4793396-7.1893616,4.4734001-7.1893616,12.2219849s2.8756561,11.7427177,7.1893616,12.2219963V73.43573
			C160.5196533,72.9564285,158.4427643,69.4416046,158.4427643,62.411953"/>
		<path d="M175.3777313,58.7373924c0-0.0799561-0.0797729-0.0799561-0.2396698-0.0799561h-0.0797729
			c-0.7989502,0-1.5977325,0.1597137-2.3965149,0.3196297c-1.2781219,0-2.2368011-0.4793434-2.2368011-1.5177879
			c0-0.0799599,0-0.2396736,0-0.3196335c0.5592957-3.0353775,4.5533752-3.2750473,7.7486725-4.1537971
			c0.5590668-0.159687,0.8787231-0.5592918,0.9586792-0.9586792c0-0.0797424,0.0797577-0.1597214,0.0797577-0.1597214
			c0-0.4793396-0.3194275-0.878727-0.8787537-0.878727c-0.0797424,0-0.1596832,0-0.3194122,0
			c-1.6775055,0.4793358-3.3550262,0.9587059-4.8728027,1.7574577c-0.1598969,0-0.3196259,0-0.5592957,0
			c-0.7987823,0-1.3578949-0.1596909-1.3578949-0.7987518c0-0.0799789,0-0.0799789,0.0797729-0.1599274
			c0-0.0797424,0-0.1597214,0-0.23946c0-0.3196487-0.3194275-0.5593185-0.6390533-0.5593185
			c-0.3993835,0-0.8787384,0.2396698-0.9584961,0.7987785c0,0.1599274-0.0799561,0.3196182-0.0799561,0.4793396
			c0,1.0384521,0.7190094,1.4378395,1.8374023,1.5177994c-1.03862,0.8787308-1.7574463,1.8372192-2.0770721,3.1952934
			c0,0.1597137,0,0.3196335,0,0.4793472c0,1.0384445,0.6390533,1.7574615,1.6775055,2.1568489
			c-2.076889,0.9584846-3.7544098,2.6360741-4.1537933,4.7130051c-0.0799561,0.3994064-0.0799561,0.7189331-0.0799561,1.1183624
			c0,2.636116,1.9971313,4.5532913,4.872818,4.5532913c1.03862,0,2.0770721-0.0798798,3.0355682-0.0798798
			c0.7987823,0,1.2781219,0.5591583,1.2781219,1.2781219c0,0.0798721,0,0.2396317,0,0.3195267
			c-0.2396698,1.1183395-1.4378357,1.7574005-2.7159576,1.7574005c-0.3993835,0-0.8787231-0.0798798-1.3580627-0.2396469
			c-0.0797729,0-0.159729-0.0798798-0.2396698-0.0798798c-0.4791718,0-0.8785553,0.4793015-0.9585114,0.9585876
			c0,0.0798798,0,0.1597748,0,0.1597748c0,0.3994064,0.2396851,0.7189331,0.8787384,0.7189331
			c2.3965149,0,4.9527588-1.1183624,5.4319153-3.2751694c0-0.2396545,0.0799561-0.4793015,0.0799561-0.718956
			c0-1.6775284-1.1981812-2.8757706-2.8758545-2.8757706c-0.7987823,0-1.5975647-0.0798721-2.396347-0.0798721
			c-2.1568451,0-3.9143066-1.1982422-3.9143066-3.0355225c0-0.1597748,0-0.3994293,0-0.5591812
			c0.5590973-2.716011,3.9143066-3.5946808,7.0296631-3.5946808c0.4793243,0,0.8787231-0.4793472,0.9586639-0.9586906
			c0-0.0797539,0-0.1597137,0-0.1597137C175.9370117,59.1367798,175.7771149,58.8171501,175.3777313,58.7373924"/>
		<path d="M187.3601227,62.411953c0,7.0296516-1.9971313,10.5444756-4.9527588,11.023777v1.1982193
			c4.2337494-0.4792786,7.1893768-4.4734116,7.1893768-12.2219963s-2.9556274-11.7426453-7.1893768-12.2219849v1.1981392
			C185.3629913,51.8674469,187.3601227,55.3823853,187.3601227,62.411953"/>
	</g>
	<g>
		<defs>
			<rect id="SVGID_6_" x="208.743866" y="72.3124542" width="14.999999" height="21"/>
		</defs>
		<clipPath id="SVGID_7_">
			<use xlink:href="#SVGID_6_"  style="overflow:visible;"/>
		</clipPath>
		<path class="st14" d="M214.095993,86.762085l3.275177,1.5177689c0.9585876,0.3994141,1.4378967,0.9585953,1.4378967,1.5976486
			c0,1.1982422-1.358017,2.2367172-3.5947266,2.2367172c-2.0769348,0-3.4349213-1.1982498-3.4349213-2.7958908
			C211.7794189,87.9603271,212.5782318,87.0816193,214.095993,86.762085 M218.4895325,78.5342178
			c0,2.3165817-1.4378967,4.0739899-2.955658,4.0739899c-1.0384674,0-1.6775208-0.7189407-1.6775208-2.1568146
			c0-2.3964767,1.4378815-4.3136597,2.9556274-4.3136597C217.8504791,76.1377335,218.4895325,77.016449,218.4895325,78.5342178z
			 M219.2084656,75.8182068c-0.7988281-0.3994064-1.597641-0.639061-2.3964844-0.639061
			c-2.7958679,0-5.0325623,2.2367096-5.0325623,5.0325928c0,1.3580017,0.8786926,2.4763641,2.3964539,3.1154251
			c-0.7189331,0.878685-1.0384674,1.597641-1.0384674,2.4763336c0,0.1597748,0,0.2396545,0,0.3994293
			c-2.3165741,0.9585876-3.3550568,1.9171753-3.3550568,3.5947037c0,2.0769424,1.8372955,3.4349365,4.7929382,3.4349365
			c3.5947113,0,6.230835-1.9171753,6.230835-3.834343c0-1.1183701-0.7189484-1.9171829-1.9970551-2.5562363l-4.0740051-1.8373032
			c0-0.0798798,0-0.0798798,0-0.1597748c0-0.4792862,0.0798645-0.9585876,0.319519-1.3579941c0.3195343,0,0.5591888,0,0.5591888,0
			c2.6361084,0,4.9526978-1.9970551,4.9526978-4.872818c0-0.4793091-0.0798798-1.0384674-0.3195343-1.6775284h2.6361084v-1.1183624
			H219.2084656z"/>
	</g>
	<g>
		<line class="st5" x1="327.2255554" y1="240.748703" x2="266.3288574" y2="226.8494568"/>
		<g>
			<line class="st6" x1="327.2255554" y1="240.7487183" x2="274.364502" y2="228.6835327"/>
			<g>
				<polygon points="266.3288879,226.8494568 278.7081604,224.8070374 274.9652405,228.8206482 276.5963135,234.0596619 				"/>
			</g>
		</g>
	</g>
	<g>
		<line class="st5" x1="574.4159546" y1="159.0301208" x2="532.4941406" y2="149.4617462"/>
		<g>
			<line class="st15" x1="574.4158936" y1="159.0301056" x2="540.661438" y2="151.3258667"/>
			<g>
				<polygon points="532.4940796,149.4617462 545.0762329,147.385849 541.2719727,151.4652252 542.9298096,156.7901001 				"/>
			</g>
		</g>
	</g>
	<g>
		<line class="st5" x1="327.2255554" y1="240.748703" x2="336.7038574" y2="180.9744568"/>
		<g>
			<line class="st6" x1="327.2255554" y1="240.7487183" x2="335.4130249" y2="189.1150208"/>
			<g>
				<polygon points="336.7038879,180.9744568 339.5722351,193.1888123 335.3165283,189.723587 330.1987305,191.7024841 				"/>
			</g>
		</g>
	</g>
	<g>
		<line class="st5" x1="327.2255554" y1="240.748703" x2="380.8913574" y2="262.9744568"/>
		<g>
			<line class="st6" x1="327.2255554" y1="240.7487183" x2="373.2763367" y2="259.8206787"/>
			<g>
				<polygon points="380.8913879,262.9744568 368.3448792,262.9150696 372.7070618,259.5848999 371.9762878,254.1467285 				"/>
			</g>
		</g>
	</g>
	<g>
		<line class="st5" x1="327.2255554" y1="240.748703" x2="373.9481506" y2="238.0271454"/>
		<g>
			<line class="st6" x1="327.2255554" y1="240.7487183" x2="365.7198181" y2="238.5064392"/>
			<g>
				<polygon points="373.9481506,238.0271301 362.629364,243.4403687 365.1047058,238.5422668 362.0774841,233.9658508 				"/>
			</g>
		</g>
	</g>
	<g>
		<g>
			<path class="st9" d="M236.1148682,250.5663452c-0.8204956,0.4628296-1.6242981,0.9324341-2.4109802,1.4081116
				c-21.5,13-28.5,46-66.5,35s-26.125-60-65.5-57s-44.0000191,52-33.0000153,72.5s27.0000153,18.5,42.0000153,5s6-44-16-29.5
				s4.5,74.5,49.5,39c43.361969-34.2077942-33.9841614-117.1630554,10.4320679-132.9989471"/>
			<g>
				<polygon points="160.2038879,182.4744568 153.2930908,187.8791199 154.2436829,184.1612244 151.4859314,181.4936218 				"/>
			</g>
		</g>
	</g>
	<path class="st8" d="M327.4402771,240.6634674c-36.5637817-9.7760162-69.7225647-2.2830963-91.3254089,9.9028778"/>
	<g>
		<defs>
			<rect id="SVGID_8_" x="77.7158737" y="198.3124542" width="48" height="27"/>
		</defs>
		<clipPath id="SVGID_9_">
			<use xlink:href="#SVGID_8_"  style="overflow:visible;"/>
		</clipPath>
		<path class="st16" d="M86.6626968,208.2176056l1.2781219,1.5976562l-1.1982422,6.9497681
			c-1.0384674,1.0384674-2.0769348,1.5177765-3.0355225,1.5177765c-1.4378891,0-2.3964767-1.1183624-2.3964767-2.9556427
			c0-2.2367096,0.7988281-4.3136597,1.7574234-5.5119019c0.8787079-1.1183472,1.9171753-1.5976562,3.1154099-1.5976562
			C86.3431702,208.2176056,86.5029449,208.2176056,86.6626968,208.2176056 M89.2189331,207.0992737l-0.6390533,0.6390533
			c-0.8787155-0.3993988-1.6775284-0.6390533-2.4763641-0.6390533c-1.7574005,0-3.7544556,1.0384674-5.1923523,2.8757629
			c-1.0384598,1.4378662-1.6775284,3.1952972-1.6775284,5.1923523c0,2.8757629,1.3580017,4.6331787,3.5148315,4.6331787
			c1.1982422,0,2.4763641-0.6390533,3.8343582-1.9970703l-1.0384674,5.9911957l-0.3195267,0.319519l-1.5177765,0.2396545v0.8787079
			h6.3107147v-0.8787079l-2.4763565-0.3994141l2.6361084-15.5770721c0.0798798-0.3993988,0.1597748-0.7189331,0.3195343-1.2781067
			H89.2189331z"/>
		<path class="st16" d="M96.008934,212.2117462c0-7.0296478,2.0769501-10.5444794,5.0326996-11.023819v-1.1981659
			c-4.2338638,0.5590973-7.1895065,4.4734192-7.1895065,12.2219849c0,7.7485809,2.9556427,11.7427063,7.1895065,12.2220001
			v-1.1982422C98.0858841,222.7562103,96.008934,219.241394,96.008934,212.2117462"/>
		<path class="st16" d="M108.3907242,204.782608l-1.2781219,2.5563202l-1.8372269,0.7988129v0.7988281l1.5975266-0.1597748
			l-1.4378204,6.9497681c-0.1597061,0.7189331-0.1597061,1.2781219-0.1597061,1.7574005
			c0,1.5177765,0.6390533,2.3166046,2.1568451,2.3166046c0.8785172,0,2.2365875-0.3994293,3.9141006-1.1183624v-0.8787079
			c-1.0384521,0.3994293-1.8371964,0.5591888-2.3965225,0.5591888c-1.0384445,0-1.5975266-0.5591888-1.5975266-1.5976562
			c0-0.3195343,0.0799484-0.6390533,0.1596909-1.1183472l1.3581009-6.8698883h3.8343277v-1.1183472h-3.6746368l0.5591049-2.8758392
			H108.3907242"/>
		<path class="st16" d="M121.3316116,212.2117462c0,7.0296478-1.9969482,10.5444641-4.9525452,11.0237579v1.1982422
			c4.2337189-0.4792938,7.1893463-4.4734192,7.1893463-12.2220001c0-7.7485657-2.9556274-11.6628876-7.1893463-12.2219849v1.1981659
			C119.3346634,201.6672668,121.3316116,205.1820984,121.3316116,212.2117462"/>
	</g>
	<g class="st2">
		
			<linearGradient id="SVGID_10_" gradientUnits="userSpaceOnUse" x1="713.4954224" y1="255.3463898" x2="662.6212769" y2="349.9723206">
			<stop  offset="0" style="stop-color:#FFFFFF"/>
			<stop  offset="1" style="stop-color:#000000"/>
		</linearGradient>
		<polygon class="st17" points="672.7540283,239.9028931 602.5476685,310.1092224 604.5826416,321.8103027 716.5057983,377.2631226 
			777.0460815,288.7420959 771.4498901,278.5672607 		"/>
		<g>
			<g>
				<line class="st18" x1="652.218811" y1="345.4118347" x2="604.1000977" y2="402.7447815"/>
				<g>
					<polygon points="598.7116699,409.164978 602.6079102,397.0155029 604.5028687,402.2648315 610.0004272,403.2199707 					"/>
				</g>
			</g>
		</g>
	</g>
	<polygon class="st19" points="568.9707642,130.0147095 593.3903198,259.7438049 720.0670166,315.7053833 788.2384033,226.1668701 
		800.4481812,99.4902115 667.1578979,69.4744568 	"/>
	<line class="st20" x1="720.0670166" y1="177.3276825" x2="800.4481812" y2="99.4902115"/>
	<line class="st20" x1="720.0670166" y1="315.7053833" x2="720.0670166" y2="177.3276825"/>
	<line class="st20" x1="568.9707642" y1="130.0147095" x2="720.0670166" y2="177.3276825"/>
	<g class="st3">
		<line class="st21" x1="674.2802734" y1="188.0112457" x2="593.3903198" y2="259.7438049"/>
		<line class="st21" x1="667.1578979" y1="69.4744568" x2="674.2802734" y2="188.0112457"/>
		<line class="st21" x1="788.2384033" y1="226.1668701" x2="674.2802734" y2="188.0112457"/>
	</g>
	<g>
		<g>
			<line class="st18" x1="593.1741943" y1="274.3595581" x2="572.6746216" y2="293.2407837"/>
			<g>
				<polygon points="566.5094604,298.91922 571.9273071,287.3677063 573.135498,292.8162842 578.4657593,294.4665833 				"/>
			</g>
		</g>
	</g>
	<line class="st18" x1="646.2665405" y1="225.4587555" x2="597.1888428" y2="270.6619263"/>
	<polygon class="st22" points="720.0670166,177.3276825 720.0670166,315.7053833 788.2384033,226.1668701 800.4481812,99.4902115 	
		"/>
	<polygon class="st23" points="568.9707642,130.0147095 593.3903198,259.7438049 720.0670166,315.7053833 720.0670166,177.3276825 	
		"/>
	<polyline class="st18" points="606.5682373,265.5653687 720.0670166,315.7053833 788.2384033,226.1668701 800.4481812,99.4902115 
		667.1578979,69.4744568 568.9707642,130.0147095 593.3903198,259.7438049 601.2159424,263.2009277 	"/>
	<circle cx="646.2665405" cy="225.4587555" r="2.5987031"/>
	<g class="st2">
		<g>
			<line class="st24" x1="689.796875" y1="185.365036" x2="574.4159546" y2="159.0301208"/>
			<line class="st15" x1="689.796875" y1="185.365036" x2="646.2665405" y2="225.4587555"/>
		</g>
		<circle cx="689.796875" cy="185.365036" r="2.5987031"/>
	</g>
	<g>
		<g>
			<path class="st25" d="M584.1124268,315.2872009c4.7406616,0.848877,9.2774658,0.1409302,12.9696655-2.3717346
				c9.8458252-6.7004089,9.9572754-23.6969604,0.2489014-37.9628296
				c-9.708374-14.2658997-25.5602417-20.3989258-35.4060669-13.6985168
				c-1.9924927,1.3559265-3.5863037,3.1335144-4.7807617,5.2247925"/>
			<g>
				<polygon points="554.9595337,272.4487915 554.8099976,262.776947 557.4448242,266.0875244 561.6252441,265.4395752 				"/>
			</g>
		</g>
	</g>
	<g>
		<defs>
			<rect id="SVGID_11_" x="548.8238525" y="287.7184448" width="15" height="27"/>
		</defs>
		<clipPath id="SVGID_12_">
			<use xlink:href="#SVGID_11_"  style="overflow:visible;"/>
		</clipPath>
		<path class="st26" d="M559.2086182,297.9431458c-0.079895-0.079895-0.15979-0.079895-0.2396851-0.079895c0,0-0.079895,0-0.15979,0
			c-0.7987671,0-1.5975952,0.15979-2.3964233,0.3195496c-1.2781372,0-2.2366943-0.4792786-2.2366943-1.5177917
			c0-0.0798645,0-0.239624,0.079834-0.319519c0.5592041-3.035614,4.4734497-3.2750854,7.7485962-4.1538086
			c0.5592041-0.0799561,0.8787231-0.5593262,0.9586182-0.9587097c0-0.0797424,0-0.0797424,0-0.1596985
			c0-0.4793396-0.2396851-0.8787231-0.7988281-0.8787231c-0.079895,0-0.2396851,0-0.319519,0
			c-1.6775513,0.4793396-3.4349976,1.0384216-4.8728638,1.7574463c-0.239624,0-0.3994141,0.0797729-0.5591431,0.0797729
			c-0.7988281,0-1.3580322-0.2394714-1.3580322-0.7987976c0-0.0797424,0-0.1596985,0-0.2396545c0-0.0797729,0-0.159729,0-0.2396851
			c0-0.3194275-0.239624-0.559082-0.6390381-0.559082s-0.7988281,0.2396545-0.8787231,0.7987671
			c-0.079895,0.1599121-0.079895,0.3993835-0.079895,0.4793396c0,1.0384521,0.7189941,1.4378357,1.8372803,1.5177917
			c-1.0384521,0.8787231-1.8372803,1.9171753-2.0769043,3.195282c0,0.1597595-0.079895,0.3195496-0.079895,0.4792786
			c0,1.0385132,0.7189331,1.7574463,1.6775513,2.1568604c-2.0769653,0.9585876-3.6746216,2.6361084-4.1538696,4.7929382
			c0,0.319519-0.079895,0.6390381-0.079895,1.0384521c0,2.6361389,2.0769043,4.6331787,4.9526978,4.6331787
			c0.9585571,0,1.9970703-0.1597595,3.0355225-0.1597595c0.7189331,0,1.2781372,0.5591736,1.2781372,1.2781067
			c0,0.15979-0.079895,0.2396545-0.079895,0.3195496c-0.239624,1.1183472-1.3580322,1.7574158-2.6361084,1.7574158
			c-0.4793091,0-0.9586182-0.079895-1.3580322-0.2396545c-0.159729,0-0.159729-0.079895-0.319519-0.079895
			c-0.3994141,0-0.7988281,0.4793091-0.8787231,0.9586182c-0.079834,0.0798645-0.079834,0.1597595-0.079834,0.1597595
			c0,0.3994141,0.319519,0.7189331,0.8786621,0.7189331c2.3964844,0,5.0325928-1.1183472,5.4320068-3.275177
			c0.079895-0.2396545,0.079895-0.4793091,0.079895-0.7189331c0-1.5976562-1.1183472-2.8757935-2.8757324-2.8757935
			c-0.7988281,0-1.5976562-0.0798645-2.3964844-0.0798645c-2.0769653,0-3.9142456-1.1982422-3.9142456-3.035553
			c0-0.159729,0-0.3993835,0.079895-0.5591431c0.4793091-2.7160034,3.9142456-3.5947266,6.9497681-3.5947266
			c0.5591431,0,0.9585571-0.4792786,1.0384521-0.9585876c0-0.0798645,0-0.1597595,0-0.1597595
			C559.7677612,298.3425598,559.6079712,298.0230408,559.2086182,297.9431458"/>
	</g>
	<g>
		<defs>
			<rect id="SVGID_13_" x="480.849884" y="225.3124542" width="88.9091721" height="26.9201202"/>
		</defs>
		<clipPath id="SVGID_14_">
			<use xlink:href="#SVGID_13_"  style="overflow:visible;"/>
		</clipPath>
		<path class="st27" d="M491.8736572,238.8123322h-5.9113159c0.15979-2.2367096,1.5976562-3.6745911,3.275177-3.6745911
			c1.6775513,0,2.6361389,1.1183624,2.6361389,3.1952972C491.8736572,238.4928131,491.8736572,238.6525574,491.8736572,238.8123322
			 M494.1902466,243.9248047c-1.5177917,0.9585876-2.7958984,1.4378815-4.0740051,1.4378815
			c-2.5562439,0-4.3136597-1.9171906-4.3136597-5.1923523c0-0.0798798,0-0.2396545,0-0.3195343h8.3077698
			c0.079895-0.2396545,0.079895-0.5591736,0.079895-0.7988281c0-3.1154022-1.8373108-5.0325775-4.6332092-5.0325775
			c-3.434906,0-5.9911499,2.6361084-5.9911499,6.4704742c0,3.8343506,2.3964539,6.3905792,5.7515259,6.3905792
			c1.5976562,0,3.275177-0.5591736,4.8728333-1.597641V243.9248047z"/>
		<polyline class="st27" points="495.7080078,234.2590179 495.7080078,235.2176056 497.3056641,235.4572601 
			500.7405701,240.4898682 496.9861145,245.4425507 495.5482178,245.6822052 495.5482178,246.6407928 500.421051,246.6407928 
			500.421051,245.6822052 498.9831848,245.5224609 498.8233948,245.2029266 501.4594727,241.4484558 503.8559875,245.2828064 
			503.6962891,245.5224609 502.6578369,245.6822052 502.6578369,246.6407928 508.0897522,246.6407928 508.0897522,245.6822052 
			506.5719604,245.4425507 502.7375793,239.9306793 506.1725769,235.4572601 507.6103821,235.2176056 507.6103821,234.2590179 
			502.9772644,234.2590179 502.9772644,235.2176056 504.1756287,235.3773804 504.4151001,235.6969147 502.0985413,238.9720917 
			499.9417725,235.6170349 500.021637,235.3773804 501.2198792,235.2176056 501.2198792,234.2590179 495.7080078,234.2590179 		"/>
		<path class="st27" d="M512.7228394,245.1230316v-8.6273041c0.9586792-0.5591583,1.7575073-0.8786926,2.6362305-0.8786926
			c2.2368164,0,3.7543945,1.7574005,3.7543945,4.7130432c0,3.1952972-1.7572632,5.1923828-4.2337646,5.1923828
			C514.2406616,245.5224609,513.5218506,245.4425507,512.7228394,245.1230316 M508.7288208,252.2325745h6.071167v-0.9585876
			l-1.6775513-0.0798798l-0.3995972-0.4793091v-4.2337494c0.9586792,0.1597443,1.7575073,0.239624,2.3965454,0.239624
			c3.7546387,0,6.3108521-2.6361084,6.3108521-6.7101135c0-3.5947113-2.1568604-5.9911652-4.9527588-5.9911652
			c-1.1983643,0-2.3965454,0.4792786-3.7546387,1.517746v-1.4378662h-1.0384216l-2.9555969,0.9585876v0.7988129h1.8374023
			v14.8581238l-0.3995972,0.4793091l-1.4378052,0.0798798V252.2325745z"/>
		<path class="st27" d="M526.1430664,239.2117462c0-7.0296478,2.0771484-10.5444794,5.0327759-11.023819v-1.1981659
			c-4.2337646,0.5590973-7.1893921,4.4734192-7.1893921,12.2219849c0,7.7485809,2.9556274,11.7427063,7.1893921,12.2220001
			v-1.1982422C528.2202148,249.7562103,526.1430664,246.241394,526.1430664,239.2117462"/>
		<path class="st27" d="M538.5249023,231.782608l-1.2781372,2.5563202l-1.8372192,0.7988129v0.7988281l1.5975952-0.1597748
			l-1.4378662,6.9497681c-0.159729,0.7189331-0.159729,1.2781219-0.159729,1.7574005
			c0,1.5177765,0.6390381,2.3166046,2.1568604,2.3166046c0.8787231,0,2.2366333-0.3994293,3.9141235-1.1183624v-0.8787079
			c-1.0384521,0.3994293-1.8372192,0.5591888-2.3963623,0.5591888c-1.0383911,0-1.5977173-0.5591888-1.5977173-1.5976562
			c0-0.3195343,0.0799561-0.6390533,0.159729-1.1183472l1.3580933-6.8698883h3.8343506v-1.1183472h-3.6746826l0.5593262-2.8758392
			H538.5249023"/>
		<path class="st27" d="M555.1404419,235.5371399c-0.0797729-0.0798798-0.159729-0.0798798-0.2396851-0.0798798
			c0,0-0.0797119,0-0.159729,0c-0.7987671,0-1.5975342,0.1597748-2.3964844,0.3195343
			c-1.2781372,0-2.2366333-0.4792786-2.2366333-1.5177765c0-0.0798645,0-0.239624,0.0799561-0.319519
			c0.5591431-3.0356293,4.4734497-3.2751007,7.7484741-4.1538239c0.5593262-0.0799561,0.8787231-0.5593109,0.9586792-0.9586945
			c0-0.0797577,0-0.0797577,0-0.1597137c0-0.4793396-0.2396851-0.8787231-0.7989502-0.8787231c-0.159729,0-0.2394409,0-0.319458,0
			c-1.6774902,0.4793396-3.4349365,1.0384369-4.8727417,1.7574615c-0.2396851,0-0.3994141,0.0797424-0.5593262,0.0797424
			c-0.87854,0-1.3579102-0.2394562-1.3579102-0.7987671c0-0.0797577,0-0.1597137,0-0.2396698c0-0.0797577,0-0.1597137,0-0.2396698
			c0-0.3194275-0.239624-0.5590973-0.6390381-0.5590973s-0.7987671,0.2396698-0.8787231,0.7987671
			c-0.0799561,0.1599121-0.0799561,0.3993835-0.0799561,0.4793396c0,1.0384521,0.7189941,1.4378357,1.8374023,1.5177917
			c-1.0384521,0.8787384-1.8374023,1.9171753-2.0770874,3.1952972c0,0.1597595-0.0797729,0.3195343-0.0797729,0.4792786
			c0,1.0384979,0.718811,1.757431,1.6775513,2.1568298c-2.0769043,0.9585876-3.6746826,2.6361237-4.1540527,4.7929535
			c0,0.319519-0.0797119,0.6390533-0.0797119,1.0384674c0,2.6361237,2.0769043,4.6331787,4.8728027,4.6331787
			c1.0384521,0,2.0768433-0.1597748,3.1153564-0.1597748c0.7189941,0,1.1983643,0.5591888,1.1983643,1.2781219
			c0,0.1597748,0,0.2396545,0,0.3195343c-0.2396851,1.1183624-1.3580933,1.7574158-2.6362305,1.7574158
			c-0.4793701,0-0.9584961-0.0798798-1.3580933-0.2396545c-0.159729,0-0.2394409-0.0798798-0.319397-0.0798798
			c-0.3994141,0-0.7987671,0.4792938-0.8787231,0.9585876c-0.0799561,0.079895-0.0799561,0.1597748-0.0799561,0.1597748
			c0,0.3994141,0.3196411,0.7189331,0.8787231,0.7189331c2.3964844,0,5.0327148-1.1183472,5.4320679-3.275177
			c0.0797729-0.2396393,0.0797729-0.4792938,0.0797729-0.7189484c0-1.597641-1.1181641-2.8757629-2.8756714-2.8757629
			c-0.7987671,0-1.5977173-0.0798798-2.3965454-0.0798798c-2.1567993,0-3.9140625-1.1982422-3.9140625-3.0355377
			c0-0.1597443,0-0.3993988,0.0797729-0.5591583c0.4793091-2.7160034,3.9143066-3.5947266,6.9498901-3.5947266
			c0.559082,0,0.9584351-0.4792786,1.0384521-0.9585876c0-0.0798798,0-0.1597443,0-0.1597443
			C555.6997681,235.9365692,555.5397949,235.6170349,555.1404419,235.5371399"/>
		<path class="st27" d="M566.8034058,239.2117462c0,7.0296478-2.0770874,10.5444641-5.0327148,11.0237579v1.1982422
			c4.3137207-0.4792938,7.1893311-4.4734192,7.1893311-12.2220001c0-7.7485657-2.8756104-11.6628876-7.1893311-12.2219849v1.1981659
			C564.7263184,228.6672668,566.8034058,232.1820984,566.8034058,239.2117462"/>
	</g>
	<g>
		<g>
			<path class="st25" d="M679.671936,4.3964615c-6.1032104-2.8811111-16.9550171-5.6446419-30.4329224,0.9895782
				c-21.1604004,10.4157448-28.6389771,61.7803268-60.7775879,84.216011s-54.4642334-19.7522278-41.1730347-33.9857826
				s36.038147-6.9406815,31.4768066,15.2712593s-50.9860229,30.6377716-65.7820435,50.5269012
				c-14.796051,19.8891296-10.3177795,44.8404846,4.4191895,55.3260345
				c14.7369385,10.4855652,35.4382324,3.3734894,40.6615601-5.6246796"/>
			<g>
				<polygon points="685.0866699,7.7191544 679.2573242,0 679.21521,4.2308693 675.5200806,6.2904854 				"/>
			</g>
		</g>
	</g>
	<g>
		<defs>
			<rect id="SVGID_15_" x="536.7158813" y="15.3124533" width="48" height="27"/>
		</defs>
		<clipPath id="SVGID_16_">
			<use xlink:href="#SVGID_15_"  style="overflow:visible;"/>
		</clipPath>
		<path class="st28" d="M545.6627197,25.2176132l1.2780762,1.5976467l-1.1982422,6.9497738
			c-1.0384521,1.0384636-2.0769043,1.5177689-3.0355225,1.5177689c-1.4378662,0-2.3964844-1.1183624-2.3964844-2.9556427
			c0-2.2367058,0.7988892-4.3136578,1.7574463-5.5118999c0.8787231-1.1183434,1.9171753-1.5976467,3.1154175-1.5976467
			C545.3431396,25.2176132,545.5029297,25.2176132,545.6627197,25.2176132 M548.2189331,24.0992699l-0.6390381,0.6390591
			c-0.8787231-0.3994064-1.6775513-0.6390591-2.4763794-0.6390591c-1.7573853,0-3.7544556,1.0384655-5.1923218,2.8757648
			c-1.0385132,1.4378719-1.6775513,3.1952953-1.6775513,5.1923504c0,2.8757629,1.3579712,4.6331902,3.5148315,4.6331902
			c1.1982422,0,2.4763794-0.639061,3.8343506-1.9970779l-1.0384521,5.991188l-0.319519,0.3195305l-1.5178223,0.2396469v0.8787079
			h6.31073v-0.8787079l-2.4763794-0.3994102l2.6361694-15.5770645c0.079834-0.3994064,0.159729-0.718935,0.319519-1.2781181
			H548.2189331z"/>
		<path class="st28" d="M555.0089111,29.2117405c0-7.0296478,2.0769653-10.5444717,5.0327148-11.0238152v-1.1981621
			c-4.2338867,0.5591011-7.1895142,4.4734135-7.1895142,12.2219772c0,7.7485867,2.9556274,11.742712,7.1895142,12.2220058v-1.198246
			C557.0858765,39.756218,555.0089111,36.2413902,555.0089111,29.2117405"/>
		<path class="st28" d="M567.3907471,21.7826042l-1.2781372,2.5563183l-1.8372192,0.7988129v0.7988338l1.5975342-0.1597748
			l-1.4378662,6.9497719c-0.159668,0.7189369-0.159668,1.2781181-0.159668,1.7574005
			c0,1.5177727,0.6390381,2.3166084,2.1568604,2.3166084c0.878479,0,2.2365723-0.3994293,3.9140625-1.1183662v-0.8787117
			c-1.0384521,0.3994293-1.8372192,0.5591812-2.3964844,0.5591812c-1.0384521,0-1.5975342-0.5591812-1.5975342-1.5976448
			c0-0.3195305,0.0799561-0.639061,0.159668-1.1183434l1.3580933-6.8698959h3.8343506V24.658453h-3.6746826l0.5591431-2.8758488
			H567.3907471"/>
		<path class="st28" d="M580.331604,29.2117405c0,7.0296497-1.9969482,10.5444775-4.9525146,11.0237598v1.198246
			c4.2337036-0.4792938,7.1893311-4.4734192,7.1893311-12.2220058c0-7.7485638-2.9556274-11.6628761-7.1893311-12.2219772v1.1981621
			C578.3346558,18.6672688,580.331604,22.1820927,580.331604,29.2117405"/>
	</g>
</g>
</svg>
